<?xml version="1.0" standalone="no"?>
<!DOCTYPE svg PUBLIC "-//W3C//DTD SVG 20010904//EN"
 "http://www.w3.org/TR/2001/REC-SVG-20010904/DTD/svg10.dtd">
<svg version="1.0" xmlns="http://www.w3.org/2000/svg"
 width="500.000000pt" height="88.000000pt" viewBox="0 0 500.000000 88.000000"
 preserveAspectRatio="xMidYMid meet">

<g transform="translate(0.000000,88.000000) scale(0.100000,-0.100000)"
fill="#000000" stroke="none">
<path d="M730 777 c11 -8 14 -27 12 -61 -2 -36 0 -47 10 -44 8 3 14 24 16 51
l3 47 110 0 c66 0 109 4 109 10 0 6 -52 10 -137 10 -110 -1 -135 -3 -123 -13z"/>
<path d="M800 719 c0 -28 4 -39 13 -36 6 2 11 12 11 21 -1 12 7 16 33 16 26 0
33 -4 31 -16 -2 -10 3 -19 10 -21 8 -3 12 8 12 36 0 23 -4 41 -10 41 -5 0 -10
-4 -10 -10 0 -5 -16 -10 -35 -10 -19 0 -35 5 -35 10 0 6 -4 10 -10 10 -5 0
-10 -18 -10 -41z"/>
<path d="M940 715 c0 -25 5 -45 10 -45 6 0 10 20 10 45 0 25 -4 45 -10 45 -5
0 -10 -20 -10 -45z"/>
<path d="M840 694 c0 -9 5 -14 12 -12 18 6 21 28 4 28 -9 0 -16 -7 -16 -16z"/>
<path d="M595 639 c-42 -37 -95 -138 -95 -182 0 -23 6 -31 29 -40 l30 -11 -31
-34 c-25 -30 -29 -40 -23 -70 15 -82 69 -149 127 -158 21 -4 35 -10 33 -14 -3
-5 -14 -6 -25 -3 -11 3 -20 1 -20 -3 0 -13 69 -56 79 -49 5 2 14 -2 21 -10 17
-20 44 -20 36 1 -3 9 -6 29 -6 45 0 19 -5 29 -15 29 -8 0 -15 -8 -15 -17 -1
-17 -1 -17 -11 0 -14 25 -5 32 38 29 32 -3 35 -1 30 20 -3 13 -9 44 -12 71
l-7 47 -43 0 c-24 0 -50 -3 -59 -6 -20 -8 -21 -30 -2 -41 22 -13 38 -51 25
-59 -16 -10 -33 16 -53 80 -18 57 -18 111 -1 111 5 0 12 -13 15 -30 4 -20 11
-30 23 -29 9 0 33 1 52 2 32 2 35 5 35 32 0 46 -39 80 -91 80 -50 0 -44 14 7
16 45 1 50 8 57 72 l6 53 -52 -3 c-50 -3 -52 -4 -49 -30 3 -31 -13 -68 -29
-68 -24 0 15 105 54 148 28 30 41 28 21 -3 l-16 -25 40 0 c32 0 44 5 53 21 16
31 -8 51 -69 57 -44 4 -52 1 -87 -29z"/>
<path d="M1016 646 c-82 -23 -72 -74 26 -128 50 -27 64 -40 66 -61 2 -19 -1
-27 -12 -27 -9 0 -16 8 -16 18 0 29 -14 41 -57 48 l-41 6 8 -38 c10 -42 40
-71 83 -80 15 -4 27 -13 27 -20 0 -12 -46 -144 -53 -150 -1 -1 0 35 1 81 l4
84 -44 11 c-23 6 -51 13 -60 16 -13 4 -19 -7 -28 -53 -24 -122 -26 -124 -33
-28 -4 49 -11 92 -15 96 -4 4 -29 10 -56 14 l-49 7 7 -39 c4 -21 19 -87 33
-146 l25 -108 51 3 52 3 22 55 22 55 1 -50 c0 -57 -7 -71 -35 -76 -16 -3 -21
-13 -23 -47 -3 -38 -1 -42 20 -42 24 0 48 16 48 32 0 16 -29 8 -33 -9 -3 -10
-5 -2 -5 17 0 19 2 29 5 23 7 -18 43 -16 43 1 0 8 -6 17 -12 19 -7 3 10 6 39
6 48 1 54 4 87 44 33 40 75 121 91 174 6 22 4 23 -42 18 -42 -4 -44 -4 -17 5
46 15 57 33 52 85 -7 59 -20 72 -87 91 -58 17 -90 38 -77 51 4 4 13 1 20 -9 8
-11 21 -14 39 -11 33 7 43 19 27 38 -20 24 -62 33 -104 21z"/>
<path d="M797 612 c-18 -20 -51 -93 -61 -134 -6 -25 -4 -26 44 -30 42 -2 51 0
56 15 8 24 38 17 42 -10 2 -15 13 -23 38 -28 20 -3 42 -9 49 -11 11 -5 11 5
-1 56 -8 34 -24 84 -35 111 -21 49 -22 49 -69 49 -32 0 -52 -6 -63 -18z m71
-71 c-2 -13 -7 -18 -15 -13 -7 4 -10 17 -6 31 7 28 26 13 21 -18z"/>
<path d="M766 124 c-9 -25 4 -84 19 -84 7 0 16 6 18 13 4 9 6 9 6 0 1 -7 10
-13 20 -13 18 0 19 2 3 50 -13 40 -20 50 -38 50 -12 0 -25 -7 -28 -16z"/>
<path d="M830 130 c0 -5 4 -10 10 -10 5 0 13 -18 16 -40 4 -24 12 -40 20 -40
10 0 14 13 14 40 0 22 5 40 10 40 6 0 10 5 10 10 0 6 -18 10 -40 10 -22 0 -40
-4 -40 -10z"/>
<path d="M1007 102 c-3 -15 -4 -28 -2 -30 3 -4 85 46 85 52 0 2 -18 4 -39 4
-34 1 -40 -2 -44 -26z"/>
</g>
</svg>
